<mxfile host="app.diagrams.net" modified="2023-12-11T08:21:45.056Z" agent="Mozilla/5.0 (Windows NT 10.0; Win64; x64) AppleWebKit/537.36 (KHTML, like Gecko) Chrome/119.0.0.0 Safari/537.36" etag="I8MRBqoPxB8nejAXCnEh" version="22.1.7" type="device">
  <diagram name="Page-1" id="8pwWCYxLZtbmEOVCGbv0">
    <mxGraphModel dx="10300" dy="6030" grid="1" gridSize="10" guides="1" tooltips="1" connect="1" arrows="1" fold="1" page="1" pageScale="1" pageWidth="1100" pageHeight="850" math="0" shadow="0">
      <root>
        <mxCell id="0" />
        <mxCell id="1" parent="0" />
        <mxCell id="QTST4iHeaczxJZyYY0J6-98" value="f" style="rounded=0;whiteSpace=wrap;html=1;" vertex="1" parent="1">
          <mxGeometry x="-2710" y="-2250" width="4420" height="5510" as="geometry" />
        </mxCell>
        <mxCell id="QTST4iHeaczxJZyYY0J6-42" style="edgeStyle=none;rounded=0;orthogonalLoop=1;jettySize=auto;html=1;strokeWidth=7;" edge="1" parent="1" source="QTST4iHeaczxJZyYY0J6-9" target="QTST4iHeaczxJZyYY0J6-14">
          <mxGeometry relative="1" as="geometry" />
        </mxCell>
        <mxCell id="QTST4iHeaczxJZyYY0J6-43" style="edgeStyle=none;rounded=0;orthogonalLoop=1;jettySize=auto;html=1;entryX=0;entryY=0;entryDx=0;entryDy=0;strokeWidth=7;" edge="1" parent="1" source="QTST4iHeaczxJZyYY0J6-9" target="QTST4iHeaczxJZyYY0J6-15">
          <mxGeometry relative="1" as="geometry" />
        </mxCell>
        <mxCell id="QTST4iHeaczxJZyYY0J6-44" style="edgeStyle=none;rounded=0;orthogonalLoop=1;jettySize=auto;html=1;strokeWidth=7;" edge="1" parent="1" source="QTST4iHeaczxJZyYY0J6-9" target="QTST4iHeaczxJZyYY0J6-16">
          <mxGeometry relative="1" as="geometry" />
        </mxCell>
        <mxCell id="QTST4iHeaczxJZyYY0J6-45" style="edgeStyle=none;rounded=0;orthogonalLoop=1;jettySize=auto;html=1;strokeWidth=7;" edge="1" parent="1" source="QTST4iHeaczxJZyYY0J6-9" target="QTST4iHeaczxJZyYY0J6-12">
          <mxGeometry relative="1" as="geometry" />
        </mxCell>
        <mxCell id="QTST4iHeaczxJZyYY0J6-9" value="&lt;p style=&quot;line-height: 150%;&quot;&gt;&lt;b style=&quot;&quot;&gt;&lt;font style=&quot;font-size: 70px;&quot;&gt;Administrator&lt;/font&gt;&lt;/b&gt;&lt;/p&gt;" style="shape=umlActor;verticalLabelPosition=bottom;verticalAlign=top;html=1;outlineConnect=0;strokeWidth=6;" vertex="1" parent="1">
          <mxGeometry x="-2100" y="-600" width="158.57" height="370" as="geometry" />
        </mxCell>
        <mxCell id="QTST4iHeaczxJZyYY0J6-46" style="edgeStyle=none;rounded=0;orthogonalLoop=1;jettySize=auto;html=1;strokeWidth=7;" edge="1" parent="1" source="QTST4iHeaczxJZyYY0J6-12" target="QTST4iHeaczxJZyYY0J6-17">
          <mxGeometry relative="1" as="geometry" />
        </mxCell>
        <mxCell id="QTST4iHeaczxJZyYY0J6-47" style="edgeStyle=none;rounded=0;orthogonalLoop=1;jettySize=auto;html=1;strokeWidth=7;" edge="1" parent="1" source="QTST4iHeaczxJZyYY0J6-12" target="QTST4iHeaczxJZyYY0J6-18">
          <mxGeometry relative="1" as="geometry" />
        </mxCell>
        <mxCell id="QTST4iHeaczxJZyYY0J6-48" style="edgeStyle=none;rounded=0;orthogonalLoop=1;jettySize=auto;html=1;strokeWidth=7;" edge="1" parent="1" source="QTST4iHeaczxJZyYY0J6-12" target="QTST4iHeaczxJZyYY0J6-19">
          <mxGeometry relative="1" as="geometry" />
        </mxCell>
        <mxCell id="QTST4iHeaczxJZyYY0J6-49" style="edgeStyle=none;rounded=0;orthogonalLoop=1;jettySize=auto;html=1;entryX=0;entryY=1;entryDx=0;entryDy=0;strokeWidth=7;" edge="1" parent="1" source="QTST4iHeaczxJZyYY0J6-12" target="QTST4iHeaczxJZyYY0J6-20">
          <mxGeometry relative="1" as="geometry" />
        </mxCell>
        <mxCell id="QTST4iHeaczxJZyYY0J6-12" value="&lt;font style=&quot;font-size: 30px;&quot;&gt;Generate Reports&lt;/font&gt;" style="ellipse;whiteSpace=wrap;html=1;strokeWidth=7;fillColor=#dae8fc;strokeColor=#6c8ebf;" vertex="1" parent="1">
          <mxGeometry x="-740" y="-1700" width="340" height="100" as="geometry" />
        </mxCell>
        <mxCell id="QTST4iHeaczxJZyYY0J6-50" style="edgeStyle=none;rounded=0;orthogonalLoop=1;jettySize=auto;html=1;strokeWidth=7;" edge="1" parent="1" source="QTST4iHeaczxJZyYY0J6-14" target="QTST4iHeaczxJZyYY0J6-21">
          <mxGeometry relative="1" as="geometry" />
        </mxCell>
        <mxCell id="QTST4iHeaczxJZyYY0J6-51" style="edgeStyle=none;rounded=0;orthogonalLoop=1;jettySize=auto;html=1;strokeWidth=7;" edge="1" parent="1" source="QTST4iHeaczxJZyYY0J6-14" target="QTST4iHeaczxJZyYY0J6-22">
          <mxGeometry relative="1" as="geometry" />
        </mxCell>
        <mxCell id="QTST4iHeaczxJZyYY0J6-52" style="edgeStyle=none;rounded=0;orthogonalLoop=1;jettySize=auto;html=1;strokeWidth=7;" edge="1" parent="1" source="QTST4iHeaczxJZyYY0J6-14">
          <mxGeometry relative="1" as="geometry">
            <mxPoint x="210" y="-780" as="targetPoint" />
          </mxGeometry>
        </mxCell>
        <mxCell id="QTST4iHeaczxJZyYY0J6-53" style="edgeStyle=none;rounded=0;orthogonalLoop=1;jettySize=auto;html=1;entryX=0;entryY=1;entryDx=0;entryDy=0;strokeWidth=7;" edge="1" parent="1" source="QTST4iHeaczxJZyYY0J6-14" target="QTST4iHeaczxJZyYY0J6-24">
          <mxGeometry relative="1" as="geometry" />
        </mxCell>
        <mxCell id="QTST4iHeaczxJZyYY0J6-14" value="&lt;font style=&quot;font-size: 30px;&quot;&gt;Manage Store Items&lt;/font&gt;" style="ellipse;whiteSpace=wrap;html=1;strokeWidth=7;fillColor=#dae8fc;strokeColor=#6c8ebf;" vertex="1" parent="1">
          <mxGeometry x="-750" y="-910" width="340" height="100" as="geometry" />
        </mxCell>
        <mxCell id="QTST4iHeaczxJZyYY0J6-54" style="edgeStyle=none;rounded=0;orthogonalLoop=1;jettySize=auto;html=1;entryX=0;entryY=1;entryDx=0;entryDy=0;strokeWidth=7;" edge="1" parent="1" source="QTST4iHeaczxJZyYY0J6-15" target="QTST4iHeaczxJZyYY0J6-27">
          <mxGeometry relative="1" as="geometry" />
        </mxCell>
        <mxCell id="QTST4iHeaczxJZyYY0J6-55" style="edgeStyle=none;rounded=0;orthogonalLoop=1;jettySize=auto;html=1;strokeWidth=7;" edge="1" parent="1" source="QTST4iHeaczxJZyYY0J6-15" target="QTST4iHeaczxJZyYY0J6-30">
          <mxGeometry relative="1" as="geometry" />
        </mxCell>
        <mxCell id="QTST4iHeaczxJZyYY0J6-57" style="edgeStyle=none;rounded=0;orthogonalLoop=1;jettySize=auto;html=1;strokeWidth=7;" edge="1" parent="1" source="QTST4iHeaczxJZyYY0J6-15">
          <mxGeometry relative="1" as="geometry">
            <mxPoint x="240" y="110" as="targetPoint" />
          </mxGeometry>
        </mxCell>
        <mxCell id="QTST4iHeaczxJZyYY0J6-15" value="&lt;font style=&quot;font-size: 30px;&quot;&gt;Manage Customers&lt;/font&gt;" style="ellipse;whiteSpace=wrap;html=1;strokeWidth=7;fillColor=#dae8fc;strokeColor=#6c8ebf;" vertex="1" parent="1">
          <mxGeometry x="-750" y="-180" width="340" height="100" as="geometry" />
        </mxCell>
        <mxCell id="QTST4iHeaczxJZyYY0J6-58" style="edgeStyle=none;rounded=0;orthogonalLoop=1;jettySize=auto;html=1;entryX=0;entryY=0.5;entryDx=0;entryDy=0;strokeWidth=7;" edge="1" parent="1" source="QTST4iHeaczxJZyYY0J6-16" target="QTST4iHeaczxJZyYY0J6-31">
          <mxGeometry relative="1" as="geometry" />
        </mxCell>
        <mxCell id="QTST4iHeaczxJZyYY0J6-61" style="edgeStyle=none;rounded=0;orthogonalLoop=1;jettySize=auto;html=1;entryX=0;entryY=0.5;entryDx=0;entryDy=0;strokeWidth=7;" edge="1" parent="1" source="QTST4iHeaczxJZyYY0J6-16" target="QTST4iHeaczxJZyYY0J6-33">
          <mxGeometry relative="1" as="geometry" />
        </mxCell>
        <mxCell id="QTST4iHeaczxJZyYY0J6-62" style="edgeStyle=none;rounded=0;orthogonalLoop=1;jettySize=auto;html=1;entryX=0;entryY=0.5;entryDx=0;entryDy=0;strokeWidth=7;" edge="1" parent="1" source="QTST4iHeaczxJZyYY0J6-16" target="QTST4iHeaczxJZyYY0J6-34">
          <mxGeometry relative="1" as="geometry" />
        </mxCell>
        <mxCell id="QTST4iHeaczxJZyYY0J6-16" value="&lt;font style=&quot;font-size: 30px;&quot;&gt;View Order History&lt;/font&gt;" style="ellipse;whiteSpace=wrap;html=1;strokeWidth=7;fillColor=#dae8fc;strokeColor=#6c8ebf;" vertex="1" parent="1">
          <mxGeometry x="-740" y="740" width="340" height="100" as="geometry" />
        </mxCell>
        <mxCell id="QTST4iHeaczxJZyYY0J6-17" value="&lt;font style=&quot;font-size: 30px;&quot;&gt;Monthly sales Report&lt;/font&gt;" style="ellipse;whiteSpace=wrap;html=1;strokeWidth=4;fillColor=#d5e8d4;strokeColor=#82b366;" vertex="1" parent="1">
          <mxGeometry x="220" y="-1880" width="340" height="100" as="geometry" />
        </mxCell>
        <mxCell id="QTST4iHeaczxJZyYY0J6-18" value="&lt;font style=&quot;font-size: 30px;&quot;&gt;Highest order rate Customers&lt;/font&gt;" style="ellipse;whiteSpace=wrap;html=1;strokeWidth=4;fillColor=#d5e8d4;strokeColor=#82b366;" vertex="1" parent="1">
          <mxGeometry x="220" y="-1610" width="340" height="100" as="geometry" />
        </mxCell>
        <mxCell id="QTST4iHeaczxJZyYY0J6-19" value="&lt;font style=&quot;font-size: 30px;&quot;&gt;Annual sales report&lt;/font&gt;" style="ellipse;whiteSpace=wrap;html=1;strokeWidth=4;fillColor=#d5e8d4;strokeColor=#82b366;" vertex="1" parent="1">
          <mxGeometry x="210" y="-1740" width="340" height="100" as="geometry" />
        </mxCell>
        <mxCell id="QTST4iHeaczxJZyYY0J6-20" value="&lt;font style=&quot;font-size: 30px;&quot;&gt;Food item Count report&lt;/font&gt;" style="ellipse;whiteSpace=wrap;html=1;strokeWidth=4;fillColor=#d5e8d4;strokeColor=#82b366;" vertex="1" parent="1">
          <mxGeometry x="220" y="-1490" width="340" height="100" as="geometry" />
        </mxCell>
        <mxCell id="QTST4iHeaczxJZyYY0J6-21" value="&lt;font style=&quot;font-size: 30px;&quot;&gt;Add item&lt;/font&gt;" style="ellipse;whiteSpace=wrap;html=1;strokeWidth=4;fillColor=#d5e8d4;strokeColor=#82b366;" vertex="1" parent="1">
          <mxGeometry x="230" y="-1070" width="340" height="100" as="geometry" />
        </mxCell>
        <mxCell id="QTST4iHeaczxJZyYY0J6-22" value="&lt;font style=&quot;font-size: 30px;&quot;&gt;Update item&lt;/font&gt;" style="ellipse;whiteSpace=wrap;html=1;strokeWidth=4;fillColor=#d5e8d4;strokeColor=#82b366;" vertex="1" parent="1">
          <mxGeometry x="220" y="-940" width="340" height="100" as="geometry" />
        </mxCell>
        <mxCell id="QTST4iHeaczxJZyYY0J6-23" value="&lt;font style=&quot;font-size: 30px;&quot;&gt;Delete item&lt;/font&gt;" style="ellipse;whiteSpace=wrap;html=1;strokeWidth=4;fillColor=#d5e8d4;strokeColor=#82b366;" vertex="1" parent="1">
          <mxGeometry x="220" y="-820" width="340" height="100" as="geometry" />
        </mxCell>
        <mxCell id="QTST4iHeaczxJZyYY0J6-26" value="" style="group;fillColor=#d5e8d4;strokeColor=#82b366;" vertex="1" connectable="0" parent="1">
          <mxGeometry x="230" y="-690" width="1215" height="100" as="geometry" />
        </mxCell>
        <mxCell id="QTST4iHeaczxJZyYY0J6-24" value="&lt;span style=&quot;font-size: 30px;&quot;&gt;Received Notifications&lt;/span&gt;" style="ellipse;whiteSpace=wrap;html=1;strokeWidth=4;fillColor=#d5e8d4;strokeColor=#82b366;" vertex="1" parent="QTST4iHeaczxJZyYY0J6-26">
          <mxGeometry width="340" height="100" as="geometry" />
        </mxCell>
        <mxCell id="QTST4iHeaczxJZyYY0J6-25" value="&lt;font style=&quot;font-size: 28px;&quot;&gt;If Notification received &quot;item was expired&quot; , admin can delete its item&lt;/font&gt;" style="text;html=1;align=center;verticalAlign=middle;resizable=0;points=[];autosize=1;strokeColor=#d79b00;fillColor=#ffe6cc;" vertex="1" parent="QTST4iHeaczxJZyYY0J6-26">
          <mxGeometry x="345" y="25" width="870" height="50" as="geometry" />
        </mxCell>
        <mxCell id="QTST4iHeaczxJZyYY0J6-105" style="edgeStyle=none;rounded=0;orthogonalLoop=1;jettySize=auto;html=1;entryX=0;entryY=0.5;entryDx=0;entryDy=0;strokeWidth=7;" edge="1" parent="1" source="QTST4iHeaczxJZyYY0J6-27" target="QTST4iHeaczxJZyYY0J6-103">
          <mxGeometry relative="1" as="geometry" />
        </mxCell>
        <mxCell id="QTST4iHeaczxJZyYY0J6-27" value="&lt;font style=&quot;font-size: 30px;&quot;&gt;Add Customer&lt;/font&gt;" style="ellipse;whiteSpace=wrap;html=1;strokeWidth=4;fillColor=#d5e8d4;strokeColor=#82b366;" vertex="1" parent="1">
          <mxGeometry x="220" y="-320" width="340" height="100" as="geometry" />
        </mxCell>
        <mxCell id="QTST4iHeaczxJZyYY0J6-28" value="&lt;font style=&quot;font-size: 30px;&quot;&gt;Update Customer&lt;/font&gt;" style="ellipse;whiteSpace=wrap;html=1;strokeWidth=4;fillColor=#d5e8d4;strokeColor=#82b366;" vertex="1" parent="1">
          <mxGeometry x="220" y="-60" width="340" height="100" as="geometry" />
        </mxCell>
        <mxCell id="QTST4iHeaczxJZyYY0J6-29" value="&lt;font style=&quot;font-size: 30px;&quot;&gt;Delete Customer&lt;/font&gt;" style="ellipse;whiteSpace=wrap;html=1;strokeWidth=4;fillColor=#d5e8d4;strokeColor=#82b366;" vertex="1" parent="1">
          <mxGeometry x="220" y="68" width="340" height="100" as="geometry" />
        </mxCell>
        <mxCell id="QTST4iHeaczxJZyYY0J6-30" value="&lt;font style=&quot;font-size: 30px;&quot;&gt;View Customer Orders&lt;/font&gt;" style="ellipse;whiteSpace=wrap;html=1;strokeWidth=4;fillColor=#d5e8d4;strokeColor=#82b366;" vertex="1" parent="1">
          <mxGeometry x="220" y="-190" width="340" height="100" as="geometry" />
        </mxCell>
        <mxCell id="QTST4iHeaczxJZyYY0J6-31" value="&lt;font style=&quot;font-size: 30px;&quot;&gt;Update Order Details&lt;/font&gt;" style="ellipse;whiteSpace=wrap;html=1;strokeWidth=4;fillColor=#d5e8d4;strokeColor=#82b366;" vertex="1" parent="1">
          <mxGeometry x="225" y="500" width="340" height="100" as="geometry" />
        </mxCell>
        <mxCell id="QTST4iHeaczxJZyYY0J6-32" value="&lt;font style=&quot;font-size: 30px;&quot;&gt;Search By Customer ID&lt;/font&gt;" style="ellipse;whiteSpace=wrap;html=1;strokeWidth=4;fillColor=#f8cecc;strokeColor=#b85450;" vertex="1" parent="1">
          <mxGeometry x="810" y="620" width="340" height="100" as="geometry" />
        </mxCell>
        <mxCell id="QTST4iHeaczxJZyYY0J6-33" value="&lt;font style=&quot;font-size: 30px;&quot;&gt;Edit Order&lt;/font&gt;" style="ellipse;whiteSpace=wrap;html=1;strokeWidth=4;fillColor=#d5e8d4;strokeColor=#82b366;" vertex="1" parent="1">
          <mxGeometry x="225" y="870" width="340" height="100" as="geometry" />
        </mxCell>
        <mxCell id="QTST4iHeaczxJZyYY0J6-34" value="&lt;font style=&quot;font-size: 30px;&quot;&gt;Delete Order&lt;/font&gt;" style="ellipse;whiteSpace=wrap;html=1;strokeWidth=4;fillColor=#d5e8d4;strokeColor=#82b366;" vertex="1" parent="1">
          <mxGeometry x="220" y="1010" width="340" height="100" as="geometry" />
        </mxCell>
        <mxCell id="QTST4iHeaczxJZyYY0J6-35" value="&lt;font style=&quot;font-size: 30px;&quot;&gt;Search By Order ID&lt;/font&gt;" style="ellipse;whiteSpace=wrap;html=1;strokeWidth=4;fillColor=#f8cecc;strokeColor=#b85450;" vertex="1" parent="1">
          <mxGeometry x="810" y="750" width="340" height="100" as="geometry" />
        </mxCell>
        <mxCell id="QTST4iHeaczxJZyYY0J6-37" style="edgeStyle=orthogonalEdgeStyle;rounded=0;orthogonalLoop=1;jettySize=auto;html=1;exitX=0.5;exitY=1;exitDx=0;exitDy=0;fillColor=#d5e8d4;strokeColor=#82b366;" edge="1" parent="1" source="QTST4iHeaczxJZyYY0J6-30" target="QTST4iHeaczxJZyYY0J6-30">
          <mxGeometry relative="1" as="geometry" />
        </mxCell>
        <mxCell id="QTST4iHeaczxJZyYY0J6-56" style="edgeStyle=none;rounded=0;orthogonalLoop=1;jettySize=auto;html=1;strokeWidth=7;" edge="1" parent="1" source="QTST4iHeaczxJZyYY0J6-15">
          <mxGeometry relative="1" as="geometry">
            <mxPoint x="220" y="-10" as="targetPoint" />
          </mxGeometry>
        </mxCell>
        <mxCell id="QTST4iHeaczxJZyYY0J6-60" style="edgeStyle=none;rounded=0;orthogonalLoop=1;jettySize=auto;html=1;entryX=0;entryY=0.5;entryDx=0;entryDy=0;strokeWidth=7;exitX=1;exitY=0.5;exitDx=0;exitDy=0;" edge="1" parent="1" source="QTST4iHeaczxJZyYY0J6-16" target="QTST4iHeaczxJZyYY0J6-100">
          <mxGeometry relative="1" as="geometry" />
        </mxCell>
        <mxCell id="QTST4iHeaczxJZyYY0J6-82" style="edgeStyle=none;rounded=0;orthogonalLoop=1;jettySize=auto;html=1;entryX=0;entryY=0.5;entryDx=0;entryDy=0;strokeWidth=7;" edge="1" parent="1" source="QTST4iHeaczxJZyYY0J6-63" target="QTST4iHeaczxJZyYY0J6-64">
          <mxGeometry relative="1" as="geometry" />
        </mxCell>
        <mxCell id="QTST4iHeaczxJZyYY0J6-83" style="edgeStyle=none;rounded=0;orthogonalLoop=1;jettySize=auto;html=1;entryX=0;entryY=0.5;entryDx=0;entryDy=0;strokeWidth=7;" edge="1" parent="1" source="QTST4iHeaczxJZyYY0J6-63" target="QTST4iHeaczxJZyYY0J6-66">
          <mxGeometry relative="1" as="geometry" />
        </mxCell>
        <mxCell id="QTST4iHeaczxJZyYY0J6-84" style="edgeStyle=none;rounded=0;orthogonalLoop=1;jettySize=auto;html=1;entryX=0;entryY=0.5;entryDx=0;entryDy=0;strokeWidth=7;" edge="1" parent="1" source="QTST4iHeaczxJZyYY0J6-63" target="QTST4iHeaczxJZyYY0J6-67">
          <mxGeometry relative="1" as="geometry" />
        </mxCell>
        <mxCell id="QTST4iHeaczxJZyYY0J6-63" value="&lt;p style=&quot;line-height: 150%;&quot;&gt;&lt;b style=&quot;&quot;&gt;&lt;font style=&quot;font-size: 70px;&quot;&gt;Cashier&lt;/font&gt;&lt;/b&gt;&lt;/p&gt;" style="shape=umlActor;verticalLabelPosition=bottom;verticalAlign=top;html=1;outlineConnect=0;strokeWidth=6;" vertex="1" parent="1">
          <mxGeometry x="-2100" y="1980" width="177.42" height="414" as="geometry" />
        </mxCell>
        <mxCell id="QTST4iHeaczxJZyYY0J6-85" style="edgeStyle=none;rounded=0;orthogonalLoop=1;jettySize=auto;html=1;entryX=0;entryY=0.5;entryDx=0;entryDy=0;strokeWidth=7;" edge="1" parent="1" source="QTST4iHeaczxJZyYY0J6-64" target="QTST4iHeaczxJZyYY0J6-68">
          <mxGeometry relative="1" as="geometry" />
        </mxCell>
        <mxCell id="QTST4iHeaczxJZyYY0J6-86" style="edgeStyle=none;rounded=0;orthogonalLoop=1;jettySize=auto;html=1;entryX=0;entryY=0.5;entryDx=0;entryDy=0;strokeWidth=7;" edge="1" parent="1" source="QTST4iHeaczxJZyYY0J6-64" target="QTST4iHeaczxJZyYY0J6-69">
          <mxGeometry relative="1" as="geometry" />
        </mxCell>
        <mxCell id="QTST4iHeaczxJZyYY0J6-87" style="edgeStyle=none;rounded=0;orthogonalLoop=1;jettySize=auto;html=1;entryX=0;entryY=0.5;entryDx=0;entryDy=0;strokeWidth=7;" edge="1" parent="1" source="QTST4iHeaczxJZyYY0J6-64" target="QTST4iHeaczxJZyYY0J6-70">
          <mxGeometry relative="1" as="geometry" />
        </mxCell>
        <mxCell id="QTST4iHeaczxJZyYY0J6-88" style="edgeStyle=none;rounded=0;orthogonalLoop=1;jettySize=auto;html=1;entryX=0;entryY=0.5;entryDx=0;entryDy=0;strokeWidth=7;" edge="1" parent="1" source="QTST4iHeaczxJZyYY0J6-64" target="QTST4iHeaczxJZyYY0J6-71">
          <mxGeometry relative="1" as="geometry" />
        </mxCell>
        <mxCell id="QTST4iHeaczxJZyYY0J6-89" style="edgeStyle=none;rounded=0;orthogonalLoop=1;jettySize=auto;html=1;entryX=0;entryY=0.5;entryDx=0;entryDy=0;strokeWidth=7;" edge="1" parent="1" source="QTST4iHeaczxJZyYY0J6-64" target="QTST4iHeaczxJZyYY0J6-72">
          <mxGeometry relative="1" as="geometry" />
        </mxCell>
        <mxCell id="QTST4iHeaczxJZyYY0J6-64" value="&lt;font style=&quot;font-size: 30px;&quot;&gt;Place Order&lt;/font&gt;" style="ellipse;whiteSpace=wrap;html=1;strokeWidth=7;fillColor=#dae8fc;strokeColor=#6c8ebf;" vertex="1" parent="1">
          <mxGeometry x="-750" y="1744" width="340" height="100" as="geometry" />
        </mxCell>
        <mxCell id="QTST4iHeaczxJZyYY0J6-92" style="edgeStyle=none;rounded=0;orthogonalLoop=1;jettySize=auto;html=1;entryX=0;entryY=0.5;entryDx=0;entryDy=0;strokeWidth=7;" edge="1" parent="1" source="QTST4iHeaczxJZyYY0J6-66" target="QTST4iHeaczxJZyYY0J6-73">
          <mxGeometry relative="1" as="geometry" />
        </mxCell>
        <mxCell id="QTST4iHeaczxJZyYY0J6-66" value="&lt;font style=&quot;font-size: 30px;&quot;&gt;Add Customer&lt;/font&gt;" style="ellipse;whiteSpace=wrap;html=1;strokeWidth=7;fillColor=#dae8fc;strokeColor=#6c8ebf;" vertex="1" parent="1">
          <mxGeometry x="-750" y="2314" width="340" height="100" as="geometry" />
        </mxCell>
        <mxCell id="QTST4iHeaczxJZyYY0J6-68" value="&lt;span style=&quot;font-size: 30px;&quot;&gt;Select Item&lt;/span&gt;" style="ellipse;whiteSpace=wrap;html=1;strokeWidth=4;fillColor=#d5e8d4;strokeColor=#82b366;" vertex="1" parent="1">
          <mxGeometry x="220" y="1474" width="340" height="100" as="geometry" />
        </mxCell>
        <mxCell id="QTST4iHeaczxJZyYY0J6-90" style="edgeStyle=none;rounded=0;orthogonalLoop=1;jettySize=auto;html=1;entryX=0;entryY=0.5;entryDx=0;entryDy=0;strokeWidth=7;" edge="1" parent="1" source="QTST4iHeaczxJZyYY0J6-69" target="QTST4iHeaczxJZyYY0J6-78">
          <mxGeometry relative="1" as="geometry" />
        </mxCell>
        <mxCell id="QTST4iHeaczxJZyYY0J6-91" style="edgeStyle=none;rounded=0;orthogonalLoop=1;jettySize=auto;html=1;strokeWidth=7;" edge="1" parent="1" source="QTST4iHeaczxJZyYY0J6-69">
          <mxGeometry relative="1" as="geometry">
            <mxPoint x="800" y="1724" as="targetPoint" />
          </mxGeometry>
        </mxCell>
        <mxCell id="QTST4iHeaczxJZyYY0J6-69" value="&lt;span style=&quot;font-size: 30px;&quot;&gt;Search and View &lt;br&gt;Item Details&lt;/span&gt;" style="ellipse;whiteSpace=wrap;html=1;strokeWidth=4;fillColor=#d5e8d4;strokeColor=#82b366;" vertex="1" parent="1">
          <mxGeometry x="220" y="1604" width="340" height="100" as="geometry" />
        </mxCell>
        <mxCell id="QTST4iHeaczxJZyYY0J6-70" value="&lt;span style=&quot;font-size: 30px;&quot;&gt;Add To Cart&lt;/span&gt;" style="ellipse;whiteSpace=wrap;html=1;strokeWidth=4;fillColor=#d5e8d4;strokeColor=#82b366;" vertex="1" parent="1">
          <mxGeometry x="220" y="1744" width="340" height="100" as="geometry" />
        </mxCell>
        <mxCell id="QTST4iHeaczxJZyYY0J6-71" value="&lt;span style=&quot;font-size: 30px;&quot;&gt;Apply Discounts&lt;/span&gt;" style="ellipse;whiteSpace=wrap;html=1;strokeWidth=4;fillColor=#d5e8d4;strokeColor=#82b366;" vertex="1" parent="1">
          <mxGeometry x="230" y="1874" width="340" height="100" as="geometry" />
        </mxCell>
        <mxCell id="QTST4iHeaczxJZyYY0J6-72" value="&lt;span style=&quot;font-size: 30px;&quot;&gt;Complete Order&lt;/span&gt;" style="ellipse;whiteSpace=wrap;html=1;strokeWidth=4;fillColor=#d5e8d4;strokeColor=#82b366;" vertex="1" parent="1">
          <mxGeometry x="230" y="2004" width="340" height="100" as="geometry" />
        </mxCell>
        <mxCell id="QTST4iHeaczxJZyYY0J6-95" style="edgeStyle=none;rounded=0;orthogonalLoop=1;jettySize=auto;html=1;entryX=0;entryY=0.5;entryDx=0;entryDy=0;strokeWidth=7;" edge="1" parent="1" source="QTST4iHeaczxJZyYY0J6-73" target="QTST4iHeaczxJZyYY0J6-93">
          <mxGeometry relative="1" as="geometry" />
        </mxCell>
        <mxCell id="QTST4iHeaczxJZyYY0J6-96" style="edgeStyle=none;rounded=0;orthogonalLoop=1;jettySize=auto;html=1;entryX=0;entryY=0.5;entryDx=0;entryDy=0;strokeWidth=7;" edge="1" parent="1" source="QTST4iHeaczxJZyYY0J6-73" target="QTST4iHeaczxJZyYY0J6-94">
          <mxGeometry relative="1" as="geometry" />
        </mxCell>
        <mxCell id="QTST4iHeaczxJZyYY0J6-73" value="&lt;span style=&quot;font-size: 30px;&quot;&gt;Add Customer Details&lt;/span&gt;" style="ellipse;whiteSpace=wrap;html=1;strokeWidth=4;fillColor=#d5e8d4;strokeColor=#82b366;" vertex="1" parent="1">
          <mxGeometry x="230" y="2314" width="340" height="100" as="geometry" />
        </mxCell>
        <mxCell id="QTST4iHeaczxJZyYY0J6-77" value="" style="group;fillColor=#dae8fc;strokeColor=#6c8ebf;" vertex="1" connectable="0" parent="1">
          <mxGeometry x="-750" y="2704" width="790" height="100" as="geometry" />
        </mxCell>
        <mxCell id="QTST4iHeaczxJZyYY0J6-67" value="&lt;font style=&quot;font-size: 30px;&quot;&gt;Generate Receipt&lt;/font&gt;" style="ellipse;whiteSpace=wrap;html=1;strokeWidth=7;fillColor=#dae8fc;strokeColor=#6c8ebf;" vertex="1" parent="QTST4iHeaczxJZyYY0J6-77">
          <mxGeometry width="340" height="100" as="geometry" />
        </mxCell>
        <mxCell id="QTST4iHeaczxJZyYY0J6-74" value="&lt;font style=&quot;font-size: 29px;&quot;&gt;Automatically Generate Receipts&lt;/font&gt;" style="text;html=1;align=center;verticalAlign=middle;resizable=0;points=[];autosize=1;strokeColor=#d79b00;fillColor=#ffe6cc;" vertex="1" parent="QTST4iHeaczxJZyYY0J6-77">
          <mxGeometry x="340" y="25" width="450" height="50" as="geometry" />
        </mxCell>
        <mxCell id="QTST4iHeaczxJZyYY0J6-80" style="edgeStyle=none;rounded=0;orthogonalLoop=1;jettySize=auto;html=1;exitX=0.5;exitY=0;exitDx=0;exitDy=0;" edge="1" parent="QTST4iHeaczxJZyYY0J6-77" source="QTST4iHeaczxJZyYY0J6-67" target="QTST4iHeaczxJZyYY0J6-67">
          <mxGeometry relative="1" as="geometry" />
        </mxCell>
        <mxCell id="QTST4iHeaczxJZyYY0J6-78" value="&lt;span style=&quot;font-size: 30px;&quot;&gt;Search by Item Name&lt;/span&gt;" style="ellipse;whiteSpace=wrap;html=1;strokeWidth=4;fillColor=#f8cecc;strokeColor=#b85450;" vertex="1" parent="1">
          <mxGeometry x="810" y="1554" width="340" height="100" as="geometry" />
        </mxCell>
        <mxCell id="QTST4iHeaczxJZyYY0J6-79" value="&lt;span style=&quot;font-size: 30px;&quot;&gt;Search by Item Code&lt;/span&gt;" style="ellipse;whiteSpace=wrap;html=1;strokeWidth=4;fillColor=#f8cecc;strokeColor=#b85450;" vertex="1" parent="1">
          <mxGeometry x="810" y="1674" width="340" height="96" as="geometry" />
        </mxCell>
        <mxCell id="QTST4iHeaczxJZyYY0J6-93" value="&lt;span style=&quot;font-size: 30px;&quot;&gt;Customer Name&lt;/span&gt;" style="ellipse;whiteSpace=wrap;html=1;strokeWidth=4;fillColor=#f8cecc;strokeColor=#b85450;" vertex="1" parent="1">
          <mxGeometry x="810" y="2244" width="340" height="100" as="geometry" />
        </mxCell>
        <mxCell id="QTST4iHeaczxJZyYY0J6-94" value="&lt;span style=&quot;font-size: 30px;&quot;&gt;Customer Contact Number&lt;/span&gt;" style="ellipse;whiteSpace=wrap;html=1;strokeWidth=4;fillColor=#f8cecc;strokeColor=#b85450;" vertex="1" parent="1">
          <mxGeometry x="810" y="2374" width="340" height="100" as="geometry" />
        </mxCell>
        <mxCell id="QTST4iHeaczxJZyYY0J6-101" style="edgeStyle=none;rounded=0;orthogonalLoop=1;jettySize=auto;html=1;entryX=0;entryY=0.5;entryDx=0;entryDy=0;strokeWidth=7;" edge="1" parent="1" source="QTST4iHeaczxJZyYY0J6-100" target="QTST4iHeaczxJZyYY0J6-32">
          <mxGeometry relative="1" as="geometry" />
        </mxCell>
        <mxCell id="QTST4iHeaczxJZyYY0J6-102" style="edgeStyle=none;rounded=0;orthogonalLoop=1;jettySize=auto;html=1;entryX=0;entryY=0.5;entryDx=0;entryDy=0;strokeWidth=7;" edge="1" parent="1" source="QTST4iHeaczxJZyYY0J6-100" target="QTST4iHeaczxJZyYY0J6-35">
          <mxGeometry relative="1" as="geometry" />
        </mxCell>
        <mxCell id="QTST4iHeaczxJZyYY0J6-100" value="&lt;font style=&quot;font-size: 30px;&quot;&gt;Search Order&lt;/font&gt;" style="ellipse;whiteSpace=wrap;html=1;strokeWidth=4;fillColor=#d5e8d4;strokeColor=#82b366;" vertex="1" parent="1">
          <mxGeometry x="220" y="700" width="340" height="100" as="geometry" />
        </mxCell>
        <mxCell id="QTST4iHeaczxJZyYY0J6-103" value="&lt;span style=&quot;font-size: 30px;&quot;&gt;Customer Name&lt;/span&gt;" style="ellipse;whiteSpace=wrap;html=1;strokeWidth=4;fillColor=#f8cecc;strokeColor=#b85450;" vertex="1" parent="1">
          <mxGeometry x="800" y="-385" width="340" height="100" as="geometry" />
        </mxCell>
        <mxCell id="QTST4iHeaczxJZyYY0J6-104" value="&lt;span style=&quot;font-size: 30px;&quot;&gt;Customer Contact Number&lt;/span&gt;" style="ellipse;whiteSpace=wrap;html=1;strokeWidth=4;fillColor=#f8cecc;strokeColor=#b85450;" vertex="1" parent="1">
          <mxGeometry x="800" y="-255" width="340" height="100" as="geometry" />
        </mxCell>
        <mxCell id="QTST4iHeaczxJZyYY0J6-106" style="edgeStyle=none;rounded=0;orthogonalLoop=1;jettySize=auto;html=1;entryX=0;entryY=0.5;entryDx=0;entryDy=0;strokeWidth=7;" edge="1" parent="1" source="QTST4iHeaczxJZyYY0J6-27" target="QTST4iHeaczxJZyYY0J6-104">
          <mxGeometry relative="1" as="geometry" />
        </mxCell>
      </root>
    </mxGraphModel>
  </diagram>
</mxfile>
